/vscmnt/brussel_pixiu_data/_data_brussel/112/vsc11236/PredSimResults/SUBJ10opt3D/expIG/worker_03.mot
version=1
nRows=4
nColumns=50
inDegrees=yes
endheader
                time	         pelvis_tilt	         pelvis_list	     pelvis_rotation	           pelvis_tx	           pelvis_ty	           pelvis_tz	       hip_flexion_r	     hip_adduction_r	      hip_rotation_r	        knee_angle_r	       ankle_angle_r	         mtp_angle_r	       hip_flexion_l	     hip_adduction_l	      hip_rotation_l	        knee_angle_l	       ankle_angle_l	         mtp_angle_l	    lumbar_extension	      lumbar_bending	     lumbar_rotation	 ercspn_r/activation	 intobl_r/activation	 extobl_r/activation	    abd_r/activation	    add_r/activation	hamstrings_r/activation	bifemsh_r/activation	glut_max_r/activation	iliopsoas_r/activation	rect_fem_r/activation	  vasti_r/activation	gastroc_r/activation	 soleus_r/activation	tib_ant_r/activation	 ercspn_l/activation	 intobl_l/activation	 extobl_l/activation	    abd_l/activation	    add_l/activation	hamstrings_l/activation	bifemsh_l/activation	glut_max_l/activation	iliopsoas_l/activation	rect_fem_l/activation	  vasti_l/activation	gastroc_l/activation	 soleus_l/activation	tib_ant_l/activation	
          1.34742350	         -0.96949932	         -2.46128393	          8.67222496	          1.07793880	          0.84074672	         -0.01707554	         24.58893252	          0.08139763	         -5.04391352	         -9.44620410	          1.54995970	          0.24447546	        -13.87686667	         -2.84130958	         -0.91537243	         -6.89507859	         11.09286692	         20.02245230	         -5.24517046	         -0.82675189	         -4.61084752	          0.11376692	          0.17259651	          0.00999999	          0.00999999	          0.14600695	          0.07147565	          0.10499442	          0.01286636	          0.07582958	          0.01000001	          0.01000000	          0.00999999	          0.00999999	          0.22820307	          0.05370908	          0.00999999	          0.00999999	          0.08163020	          0.00999999	          0.01000002	          0.17972045	          0.00999999	          0.23512978	          0.00999999	          0.00999999	          0.24269227	          0.23321601	          0.02151805	
          1.36089773	         -1.03302015	         -2.34801319	          8.50813894	          1.09095512	          0.83934268	         -0.01607916	         24.20257926	          0.25342157	         -4.81505932	        -10.19307963	          1.46610233	          0.23913425	        -14.09295032	         -2.83079138	         -1.58743806	         -8.11911374	         10.81333948	         21.39593782	         -4.97793584	         -0.46707425	         -4.99905533	          0.10368906	          0.17706759	          0.00999999	          0.00999999	          0.16521480	          0.06550878	          0.10112502	          0.01603082	          0.06192341	          0.00999999	          0.00999999	          0.01224572	          0.01100953	          0.24541376	          0.06587568	          0.00999999	          0.00999999	          0.06666026	          0.00999999	          0.01000013	          0.14676202	          0.01000000	          0.19200999	          0.01000000	          0.00999999	          0.22622193	          0.23197547	          0.01757192	
          1.37437197	         -1.09068745	         -2.24944516	          8.29275922	          1.10427476	          0.83813182	         -0.01499070	         23.72371717	          0.43182452	         -4.55063307	        -10.83507509	          1.21085416	          0.23767180	        -14.25828282	         -2.84217639	         -2.27641949	         -9.47472394	         10.39685232	         22.79032275	         -4.68628390	         -0.06332924	         -5.37617369	          0.09133829	          0.16436411	          0.00999999	          0.01000000	          0.14027132	          0.06302632	          0.08257999	          0.02614212	          0.05056745	          0.00999999	          0.01567856	          0.01000001	          0.00999999	          0.28288826	          0.07552091	          0.00999999	          0.00999999	          0.05443562	          0.00999999	          0.01000004	          0.11984774	          0.00999999	          0.15679781	          0.01000000	          0.00999999	          0.20596772	          0.22626818	          0.01434945	
          1.38784620	         -1.14259236	         -2.16288594	          8.01958868	          1.11774699	          0.83722969	         -0.01378107	         23.23205272	          0.61424889	         -4.36635704	        -11.42899534	          0.85385826	          0.23037875	        -14.31125451	         -2.87438890	         -2.98610222	        -11.04930915	          9.82497237	         24.18964189	         -4.39021469	          0.37546889	         -5.73575603	          0.08619423	          0.13422183	          0.00999999	          0.02026541	          0.13429958	          0.06782307	          0.06743587	          0.02134799	          0.04129402	          0.00999999	          0.04222036	          0.00999999	          0.00999999	          0.32327405	          0.08197410	          0.00999999	          0.00999999	          0.04445283	          0.00999999	          0.01124311	          0.09786920	          0.01008042	          0.12804310	          0.01000000	          0.00999999	          0.17994337	          0.21656384	          0.01171795	
